<?xml version="1.0" encoding="UTF-8" standalone="no"?>
<svg
  class="service-flow-logo"
  viewBox="0 0 160 130"
  version="1.1"
  id="svg9"
  xmlns="http://www.w3.org/2000/svg">
  <defs
    id="defs4">
    <linearGradient
      id="grad1"
      x1="0%"
      y1="0%"
      x2="100%"
      y2="100%"
      gradientUnits="objectBoundingBox">
      <stop
        offset="0%"
        style="stop-color:#E6F3FF; stop-opacity:1"
        id="stop1" />
      <stop
        offset="20%"
        style="stop-color:#66B3FF; stop-opacity:1"
        id="stop1b" />
      <stop
        offset="60%"
        style="stop-color:#1E5AE8; stop-opacity:1"
        id="stop1c" />
      <stop
        offset="100%"
        style="stop-color:#0D47A1; stop-opacity:1"
        id="stop2" />
    </linearGradient>
    
    <linearGradient
      id="grad2"
      x1="0%"
      y1="0%"
      x2="100%"
      y2="100%"
      gradientUnits="objectBoundingBox">
      <stop
        offset="0%"
        style="stop-color:#F0F8FF; stop-opacity:1"
        id="stop3" />
      <stop
        offset="15%"
        style="stop-color:#80D0FF; stop-opacity:1"
        id="stop3b" />
      <stop
        offset="50%"
        style="stop-color:#2196F3; stop-opacity:1"
        id="stop3c" />
      <stop
        offset="100%"
        style="stop-color:#1565C0; stop-opacity:1"
        id="stop4" />
    </linearGradient>
    
    <linearGradient
      id="lineGrad"
      x1="0%"
      y1="0%"
      x2="100%"
      y2="0%"
      gradientUnits="userSpaceOnUse">
      <stop
        offset="0%"
        style="stop-color:#ffffff; stop-opacity:0.9"
        id="lineStop1" />
      <stop
        offset="30%"
        style="stop-color:#E3F2FD; stop-opacity:0.95"
        id="lineStop2" />
      <stop
        offset="70%"
        style="stop-color:#BBDEFB; stop-opacity:1"
        id="lineStop3" />
      <stop
        offset="100%"
        style="stop-color:#ffffff; stop-opacity:0.85"
        id="lineStop4" />
    </linearGradient>
    
    <filter id="softShadow" x="-50%" y="-50%" width="200%" height="200%">
      <feDropShadow dx="0" dy="6" stdDeviation="8" flood-color="#1565C0" flood-opacity="0.25"/>
      <feDropShadow dx="0" dy="2" stdDeviation="4" flood-color="#2196F3" flood-opacity="0.15"/>
    </filter>
  </defs>

  <style>
    /* Animación de flotación más natural con curvas suaves */
    @keyframes naturalFloat {
      0% {
        transform: translateY(0px) translateX(0px) scale(1);
      }
      25% {
        transform: translateY(-3px) translateX(1px) scale(1.01);
      }
      50% {
        transform: translateY(-6px) translateX(0px) scale(1.02);
      }
      75% {
        transform: translateY(-3px) translateX(-1px) scale(1.01);
      }
      100% {
        transform: translateY(0px) translateX(0px) scale(1);
      }
    }

    /* Animación de flotación diferente para la segunda nube */
    @keyframes naturalFloat2 {
      0% {
        transform: translateY(0px) translateX(0px) scale(1);
      }
      30% {
        transform: translateY(-2px) translateX(-0.5px) scale(1.005);
      }
      60% {
        transform: translateY(-4px) translateX(0.5px) scale(1.01);
      }
      90% {
        transform: translateY(-1px) translateX(0px) scale(1.005);
      }
      100% {
        transform: translateY(0px) translateX(0px) scale(1);
      }
    }

    /* Animación de flujo más suave y continua */
    @keyframes smoothFlow {
      0% {
        stroke-dashoffset: 400;
        opacity: 0;
      }
      10% {
        opacity: 0.4;
      }
      20% {
        opacity: 0.7;
      }
      40% {
        opacity: 1;
      }
      60% {
        opacity: 1;
      }
      80% {
        opacity: 0.7;
      }
      90% {
        opacity: 0.4;
      }
      100% {
        stroke-dashoffset: -100;
        opacity: 0;
      }
    }

    /* Animación de pulsación más sutil */
    @keyframes gentlePulse {
      0%, 100% {
        stroke-width: 3.5;
      }
      50% {
        stroke-width: 4.2;
      }
    }

    /* Animación de gradiente dinámico */
    @keyframes gradientShift {
      0%, 100% {
        stroke: url(#lineGrad);
      }
      50% {
        stroke: url(#lineGrad);
        filter: brightness(1.2);
      }
    }
    
    /* Aplicar animaciones - SIN INTERACCIONES */
    .cloud1 {
      animation: naturalFloat 8s cubic-bezier(0.4, 0, 0.6, 1) infinite;
    }

    .cloud2 {
      animation: naturalFloat2 10s cubic-bezier(0.4, 0, 0.6, 1) infinite;
      animation-delay: -2s;
    }

    .flow-line {
      stroke-dasharray: 450;
      animation: 
        smoothFlow 10s cubic-bezier(0.25, 0.1, 0.25, 1) infinite,
        gentlePulse 6s ease-in-out infinite,
        gradientShift 8s ease-in-out infinite;
      stroke-linecap: round;
      stroke-linejoin: round;
    }

    #path6 {
      animation-delay: 0s;
    }
    
    #path7 {
      animation-delay: -3.3s;
    }
    
    #path8 {
      animation-delay: -6.6s;
    }
  </style>
  
  <g>
    <g class="cloud1">
      <path
        d="m 25.936271,81 h 47.6 c 10.2,0 17.356373,-6.8 17.890932,-17 C 91.961763,53.8 85.518136,47 75.318136,47 72.363602,38.5 64.130881,33.4 55.630881,33.4 c -8.5,0 -15.567279,5.1 -19.323652,11.9 -5.1,0 -12.078187,3.4 -12.43456,10.2 C 16.983576,57.2 13.40539,60.6 13.049017,67.4 12.692644,74.2 19.136271,81 25.936271,81 Z"
        fill="url(#grad1)"
        stroke="none"
        filter="url(#softShadow)"
        id="path4"
        style="fill:url(#grad1)" />
    </g>
      
    <g class="cloud2">
      <path
        d="m 69.594145,80 h 55.999995 c 12,0 19.44059,-8 18.60147,-20 C 143.35649,48 134.79707,40 122.79707,40 118.0978,30 107.67824,24 97.678243,24 c -10,0 -17.580439,6 -21.021024,14 -6,0 -13.720293,4 -13.160878,12 -7.860147,2 -11.58044,6 -11.021025,14 0.559414,8 9.118829,16 17.118829,16 z"
        fill="url(#grad2)"
        stroke="none"
        opacity="0.9"
        filter="url(#softShadow)"
        id="path5"
        style="fill:url(#grad2)" />
    </g>
    
    <mask id="cloudMask">
      <g class="cloud1">
          <path
            d="m 25.936271,81 h 47.6 c 10.2,0 17.356373,-6.8 17.890932,-17 C 91.961763,53.8 85.518136,47 75.318136,47 72.363602,38.5 64.130881,33.4 55.630881,33.4 c -8.5,0 -15.567279,5.1 -19.323652,11.9 -5.1,0 -12.078187,3.4 -12.43456,10.2 C 16.983576,57.2 13.40539,60.6 13.049017,67.4 12.692644,74.2 19.136271,81 25.936271,81 Z"
            fill="white" />
      </g>
      <g class="cloud2">
          <path
            d="m 69.594145,80 h 55.999995 c 12,0 19.44059,-8 18.60147,-20 C 143.35649,48 134.79707,40 122.79707,40 118.0978,30 107.67824,24 97.678243,24 c -10,0 -17.580439,6 -21.021024,14 -6,0 -13.720293,4 -13.160878,12 -7.860147,2 -11.58044,6 -11.021025,14 0.559414,8 9.118829,16 17.118829,16 z"
            fill="white" />
      </g>
    </mask>
    
    <g mask="url(#cloudMask)">
      <path
        class="flow-line"
        d="M 12.5,67 C 54,37 94,86 145,64"
        stroke="url(#lineGrad)"
        stroke-width="3.5"
        stroke-linecap="round"
        stroke-linejoin="round"
        fill="none"
        opacity="1"
        id="path6" />
        
      <path
        class="flow-line"
        d="M 13.5,72 C 54,42 94,91 144,69"
        stroke="url(#lineGrad)"
        stroke-width="3.5"
        stroke-linecap="round"
        stroke-linejoin="round"
        fill="none"
        opacity="0.95"
        id="path7" />
        
      <path
        class="flow-line"
        d="M 17,77 C 54,47 94,96 141.5,74"
        stroke="url(#lineGrad)"
        stroke-width="3.5"
        stroke-linecap="round"
        stroke-linejoin="round"
        fill="none"
        opacity="0.9"
        id="path8" />
    </g>
  </g>
</svg>